<?xml version="1.0" encoding="UTF-8"?>
<svg viewBox="0 0 24 24" xmlns="http://www.w3.org/2000/svg">
  <defs>
    <linearGradient id="gradient" x1="0%" y1="0%" x2="100%" y2="100%">
      <stop offset="0%" style="stop-color:#FF4848;stop-opacity:1" />
      <stop offset="100%" style="stop-color:#FF6B35;stop-opacity:1" />
    </linearGradient>
  </defs>
  
  <!-- Background circle -->
  <circle cx="12" cy="12" r="11" fill="url(#gradient)" stroke="#ffffff" stroke-width="1"/>
  
  <!-- Monday.com style grid icon -->
  <g fill="white">
    <!-- Row 1 -->
    <rect x="6" y="7" width="2" height="2" rx="0.5"/>
    <rect x="9" y="7" width="6" height="2" rx="1"/>
    <rect x="16" y="7" width="2" height="2" rx="0.5"/>
    
    <!-- Row 2 -->
    <rect x="6" y="10" width="2" height="2" rx="0.5"/>
    <rect x="9" y="10" width="6" height="2" rx="1"/>
    <rect x="16" y="10" width="2" height="2" rx="0.5"/>
    
    <!-- Row 3 -->
    <rect x="6" y="13" width="2" height="2" rx="0.5"/>
    <rect x="9" y="13" width="6" height="2" rx="1"/>
    <rect x="16" y="13" width="2" height="2" rx="0.5"/>
    
    <!-- Row 4 -->
    <rect x="6" y="16" width="2" height="2" rx="0.5"/>
    <rect x="9" y="16" width="6" height="2" rx="1"/>
    <rect x="16" y="16" width="2" height="2" rx="0.5"/>
  </g>
  
  <!-- Parser symbol overlay -->
  <g fill="white" opacity="0.9">
    <path d="M17.5 5.5 L19 7 L17.5 8.5" stroke="white" stroke-width="1.5" fill="none" stroke-linecap="round"/>
    <path d="M21 7 L19 7" stroke="white" stroke-width="1.5" stroke-linecap="round"/>
  </g>
</svg>
